<svg id="Component_14_2" data-name="Component 14 – 2" xmlns="http://www.w3.org/2000/svg" width="100" height="100" viewBox="0 0 100 100">
  <g id="Ellipse_6" data-name="Ellipse 6" fill="rgba(33,179,67,0.1)" stroke="#e2e2e2" stroke-width="3">
    <circle cx="50" cy="50" r="50" stroke="none"/>
    <circle cx="50" cy="50" r="48.5" fill="none"/>
  </g>
  <g id="Icon_feather-server" data-name="Icon feather-server" transform="translate(37.5 40.38)">
    <path id="Path_10" data-name="Path 10" d="M5.371,3H24.342c1.31,0,2.371.784,2.371,1.75v3.5c0,.966-1.062,1.75-2.371,1.75H5.371C4.062,10,3,9.216,3,8.25V4.75C3,3.784,4.062,3,5.371,3Z" transform="translate(-3 -3)" fill="none" stroke="#21b343" stroke-linecap="round" stroke-linejoin="round" stroke-width="1.5"/>
    <path id="Path_11" data-name="Path 11" d="M5.371,21H24.342c1.31,0,2.371.784,2.371,1.75v3.5c0,.966-1.062,1.75-2.371,1.75H5.371C4.062,28,3,27.216,3,26.25v-3.5C3,21.784,4.062,21,5.371,21Z" transform="translate(-2.7 -8)" fill="none" stroke="#21b343" stroke-linecap="round" stroke-linejoin="round" stroke-width="1.5"/>
    <path id="Path_12" data-name="Path 12" d="M9,9H9" transform="translate(-5 -5.931)" fill="none" stroke="#21b343" stroke-linecap="round" stroke-linejoin="round" stroke-width="1.5"/>
    <path id="Path_13" data-name="Path 13" d="M0,0H0" transform="matrix(-0.438, -0.899, 0.899, -0.438, 5.087, 16.713)" fill="none" stroke="#21b343" stroke-linecap="round" stroke-linejoin="round" stroke-width="1.5"/>
  </g>
</svg>
