<svg id="Component_12_2" data-name="Component 12 – 2" xmlns="http://www.w3.org/2000/svg" width="100" height="100" viewBox="0 0 100 100">
  <g id="Ellipse_10" data-name="Ellipse 10" fill="none" stroke="#e2e2e2" stroke-width="3">
    <circle cx="50" cy="50" r="50" stroke="none"/>
    <circle cx="50" cy="50" r="48.5" fill="none"/>
  </g>
  <path id="Icon_awesome-users" data-name="Icon awesome-users" d="M5.357,12.964A3.571,3.571,0,1,0,1.786,9.393,3.575,3.575,0,0,0,5.357,12.964Zm25,0a3.571,3.571,0,1,0-3.571-3.571A3.575,3.575,0,0,0,30.357,12.964Zm1.786,1.786H28.571a3.561,3.561,0,0,0-2.517,1.038,8.163,8.163,0,0,1,4.191,6.1h3.683a1.784,1.784,0,0,0,1.786-1.786V18.321A3.575,3.575,0,0,0,32.143,14.75Zm-14.286,0a6.25,6.25,0,1,0-6.25-6.25A6.247,6.247,0,0,0,17.857,14.75Zm4.286,1.786H21.68a8.629,8.629,0,0,1-7.645,0h-.463a6.43,6.43,0,0,0-6.429,6.429v1.607A2.679,2.679,0,0,0,9.821,27.25H25.893a2.679,2.679,0,0,0,2.679-2.679V22.964A6.43,6.43,0,0,0,22.143,16.536ZM9.66,15.788A3.561,3.561,0,0,0,7.143,14.75H3.571A3.575,3.575,0,0,0,0,18.321v1.786a1.784,1.784,0,0,0,1.786,1.786H5.463A8.183,8.183,0,0,1,9.66,15.788Z" transform="translate(32.152 35.288)" fill="none" stroke="#f73dc6" stroke-width="1"/>
</svg>
