<svg id="Component_13_1" data-name="Component 13 – 1" xmlns="http://www.w3.org/2000/svg" width="140" height="140" viewBox="0 0 140 140">
  <g id="Ellipse_11" data-name="Ellipse 11" fill="none" stroke="#e2e2e2" stroke-width="3">
    <circle cx="70" cy="70" r="70" stroke="none"/>
    <circle cx="70" cy="70" r="68.5" fill="none"/>
  </g>
  <text id="Packages_" data-name="Packages " transform="translate(27 87)" fill="#e2e2e2" font-size="18" font-family="SegoeUI-Light, Segoe UI" font-weight="300"><tspan x="8.582" y="19">Packages </tspan></text>
  <g id="Icon_feather-package" data-name="Icon feather-package" transform="translate(52.173 33.938)">
    <path id="Path_6" data-name="Path 6" d="M24.75,14.1,11.25,6.315" fill="none" stroke="#fda268" stroke-linecap="round" stroke-linejoin="round" stroke-width="2"/>
    <path id="Path_7" data-name="Path 7" d="M31.5,24V12A3,3,0,0,0,30,9.4l-10.5-6a3,3,0,0,0-3,0L6,9.4A3,3,0,0,0,4.5,12V24A3,3,0,0,0,6,26.595l10.5,6a3,3,0,0,0,3,0l10.5-6A3,3,0,0,0,31.5,24Z" fill="none" stroke="#fda268" stroke-linecap="round" stroke-linejoin="round" stroke-width="2"/>
    <path id="Path_8" data-name="Path 8" d="M4.905,10.44,18,18.015,31.095,10.44" fill="none" stroke="#fda268" stroke-linecap="round" stroke-linejoin="round" stroke-width="2"/>
    <path id="Path_9" data-name="Path 9" d="M18,33.12V18" fill="none" stroke="#fda268" stroke-linecap="round" stroke-linejoin="round" stroke-width="2"/>
  </g>
</svg>
