<svg xmlns="http://www.w3.org/2000/svg" width="25.513" height="21.5" viewBox="0 0 25.513 21.5">
  <g id="Icon_feather-server" data-name="Icon feather-server" transform="translate(-1.95 -6.63)">
    <path id="Path_10" data-name="Path 10" d="M5.371,3H24.342c1.31,0,2.371.784,2.371,1.75v3.5c0,.966-1.062,1.75-2.371,1.75H5.371C4.062,10,3,9.216,3,8.25V4.75C3,3.784,4.062,3,5.371,3Z" transform="translate(-0.3 4.38)" fill="none" stroke="#21b343" stroke-linecap="round" stroke-linejoin="round" stroke-width="1.5"/>
    <path id="Path_11" data-name="Path 11" d="M5.371,21H24.342c1.31,0,2.371.784,2.371,1.75v3.5c0,.966-1.062,1.75-2.371,1.75H5.371C4.062,28,3,27.216,3,26.25v-3.5C3,21.784,4.062,21,5.371,21Z" transform="translate(0 -0.62)" fill="none" stroke="#21b343" stroke-linecap="round" stroke-linejoin="round" stroke-width="1.5"/>
    <path id="Path_12" data-name="Path 12" d="M9,9H9" transform="translate(-2.3 1.449)" fill="none" stroke="#21b343" stroke-linecap="round" stroke-linejoin="round" stroke-width="1.5"/>
    <path id="Path_13" data-name="Path 13" d="M0,0H0" transform="matrix(-0.438, -0.899, 0.899, -0.438, 7.787, 24.093)" fill="none" stroke="#21b343" stroke-linecap="round" stroke-linejoin="round" stroke-width="1.5"/>
  </g>
</svg>
