<svg xmlns="http://www.w3.org/2000/svg" width="339.328" height="246.806" viewBox="0 0 339.328 246.806">
  <g id="Chart" transform="matrix(0.946, 0.326, -0.326, 0.946, 160.075, 222.974)">
    <g id="m1" transform="translate(-175 -175)">
      <path id="Path_3" data-name="Path 3" d="M0,154.266C9.19,128.2,18.38,102.132,27.57,91.9s18.38-4.619,27.57,12.582,18.38,45.992,27.57,49.781,18.38-17.424,27.57-44.857,18.38-61.086,27.57-54.7,18.38,52.8,27.57,62.363,18.38-17.717,27.57-37.746,18.38-32.805,27.57-37.2,18.38-.4,27.57,12.582,18.38,34.97,27.57,27.352S294.081,37.219,303.271,0" transform="translate(0 0)" fill="none" stroke="#34e0e7" stroke-width="2"/>
    </g>
  </g>
</svg>
