<svg xmlns="http://www.w3.org/2000/svg" width="45" height="30" viewBox="0 0 45 30">
  <path id="Icon_awesome-eye" data-name="Icon awesome-eye" d="M44.728,18.359A25.058,25.058,0,0,0,22.5,4.5,25.061,25.061,0,0,0,.272,18.36a2.527,2.527,0,0,0,0,2.28A25.058,25.058,0,0,0,22.5,34.5,25.061,25.061,0,0,0,44.728,20.64,2.527,2.527,0,0,0,44.728,18.359ZM22.5,30.75A11.25,11.25,0,1,1,33.75,19.5,11.25,11.25,0,0,1,22.5,30.75ZM22.5,12a7.446,7.446,0,0,0-1.977.3A3.738,3.738,0,0,1,15.3,17.523,7.483,7.483,0,1,0,22.5,12Z" transform="translate(0 -4.5)" fill="#9c9c9c"/>
</svg>
